<mxfile host="65bd71144e">
    <diagram id="wlA0oa53eAoFIhWVtIJI" name="PÃ¡gina-1">
        <mxGraphModel dx="935" dy="546" grid="1" gridSize="10" guides="1" tooltips="1" connect="1" arrows="1" fold="1" page="1" pageScale="1" pageWidth="1654" pageHeight="2336" math="0" shadow="0">
            <root>
                <mxCell id="0"/>
                <mxCell id="1" parent="0"/>
                <mxCell id="5" value="" style="edgeStyle=none;html=1;" edge="1" parent="1" source="3" target="4">
                    <mxGeometry relative="1" as="geometry"/>
                </mxCell>
                <mxCell id="3" value="Inicio" style="ellipse;whiteSpace=wrap;html=1;fillColor=#a20025;fontColor=#ffffff;strokeColor=#6F0000;" vertex="1" parent="1">
                    <mxGeometry x="810" y="990" width="120" height="80" as="geometry"/>
                </mxCell>
                <mxCell id="7" value="" style="edgeStyle=none;html=1;" edge="1" parent="1" source="4" target="6">
                    <mxGeometry relative="1" as="geometry"/>
                </mxCell>
                <mxCell id="4" value="Precio_costo" style="shape=parallelogram;perimeter=parallelogramPerimeter;whiteSpace=wrap;html=1;fixedSize=1;fillColor=#1ba1e2;fontColor=#ffffff;strokeColor=#006EAF;" vertex="1" parent="1">
                    <mxGeometry x="810" y="1108" width="120" height="60" as="geometry"/>
                </mxCell>
                <mxCell id="9" value="" style="edgeStyle=none;html=1;" edge="1" parent="1" source="6" target="8">
                    <mxGeometry relative="1" as="geometry">
                        <Array as="points">
                            <mxPoint x="710" y="1265"/>
                        </Array>
                    </mxGeometry>
                </mxCell>
                <mxCell id="11" value="" style="edgeStyle=none;html=1;startArrow=none;exitX=1;exitY=0.5;exitDx=0;exitDy=0;" edge="1" parent="1" source="6">
                    <mxGeometry relative="1" as="geometry">
                        <mxPoint x="870" y="1860" as="targetPoint"/>
                        <Array as="points">
                            <mxPoint x="1070" y="1265"/>
                            <mxPoint x="1070" y="1540"/>
                            <mxPoint x="870" y="1540"/>
                        </Array>
                    </mxGeometry>
                </mxCell>
                <mxCell id="6" value="Precio_costo&lt;br&gt;&amp;lt;3000" style="rhombus;whiteSpace=wrap;html=1;fillColor=#e3c800;fontColor=#000000;strokeColor=#B09500;" vertex="1" parent="1">
                    <mxGeometry x="815" y="1210" width="110" height="110" as="geometry"/>
                </mxCell>
                <mxCell id="16" value="" style="edgeStyle=none;html=1;exitX=1;exitY=0.5;exitDx=0;exitDy=0;" edge="1" parent="1" source="8">
                    <mxGeometry relative="1" as="geometry">
                        <mxPoint x="870" y="1860" as="targetPoint"/>
                        <Array as="points">
                            <mxPoint x="830" y="1355"/>
                            <mxPoint x="830" y="1540"/>
                            <mxPoint x="870" y="1540"/>
                        </Array>
                    </mxGeometry>
                </mxCell>
                <mxCell id="19" style="edgeStyle=none;html=1;exitX=0;exitY=0.5;exitDx=0;exitDy=0;" edge="1" parent="1" source="8">
                    <mxGeometry relative="1" as="geometry">
                        <mxPoint x="870" y="1860" as="targetPoint"/>
                        <Array as="points">
                            <mxPoint x="590" y="1355"/>
                            <mxPoint x="590" y="1540"/>
                            <mxPoint x="870" y="1540"/>
                        </Array>
                    </mxGeometry>
                </mxCell>
                <mxCell id="8" value="Precio_costo&lt;br&gt;&amp;lt;=6000" style="rhombus;whiteSpace=wrap;html=1;fillColor=#e3c800;strokeColor=#B09500;fontColor=#000000;" vertex="1" parent="1">
                    <mxGeometry x="650" y="1300" width="120" height="110" as="geometry"/>
                </mxCell>
                <mxCell id="10" value="Ganancia=0,15*&lt;br&gt;Precio_costo" style="whiteSpace=wrap;html=1;fillColor=#008a00;strokeColor=#005700;fontColor=#ffffff;" vertex="1" parent="1">
                    <mxGeometry x="1010" y="1300" width="120" height="60" as="geometry"/>
                </mxCell>
                <mxCell id="14" value="Ganancia=500" style="whiteSpace=wrap;html=1;fillColor=#008a00;strokeColor=#005700;fontColor=#ffffff;" vertex="1" parent="1">
                    <mxGeometry x="770" y="1410" width="120" height="60" as="geometry"/>
                </mxCell>
                <mxCell id="17" value="Ganacia=0,25*&lt;br&gt;Precio_costo" style="whiteSpace=wrap;html=1;fillColor=#008a00;strokeColor=#005700;fontColor=#ffffff;" vertex="1" parent="1">
                    <mxGeometry x="530" y="1410" width="120" height="60" as="geometry"/>
                </mxCell>
                <mxCell id="22" value="Precio_venta=&lt;br&gt;Precio_costo+Ganancia" style="whiteSpace=wrap;html=1;fillColor=#008a00;strokeColor=#005700;fontColor=#ffffff;" vertex="1" parent="1">
                    <mxGeometry x="797.5" y="1600" width="145" height="60" as="geometry"/>
                </mxCell>
                <mxCell id="29" style="edgeStyle=none;html=1;" edge="1" parent="1" source="24">
                    <mxGeometry relative="1" as="geometry">
                        <mxPoint x="870" y="1860" as="targetPoint"/>
                    </mxGeometry>
                </mxCell>
                <mxCell id="24" value="Precio_venta" style="shape=document;whiteSpace=wrap;html=1;boundedLbl=1;fillColor=#6a00ff;strokeColor=#3700CC;fontColor=#ffffff;" vertex="1" parent="1">
                    <mxGeometry x="810" y="1710" width="120" height="80" as="geometry"/>
                </mxCell>
                <mxCell id="26" value="Fin" style="ellipse;whiteSpace=wrap;html=1;fillColor=#a20025;strokeColor=#6F0000;fontColor=#ffffff;" vertex="1" parent="1">
                    <mxGeometry x="815" y="1820" width="110" height="110" as="geometry"/>
                </mxCell>
            </root>
        </mxGraphModel>
    </diagram>
</mxfile>